# xmcd
#
# Track frame offsets:
#	150
#	15177
#	34437
#	50890
#	67992
#	83282
#	103610
#	120590
#	139187
#	159580
#	175652
#	193750
#	207847
#	222505
#	238177
#	257030
#	270272
#	281492
#
# Disc length: 3978
#
# Revision: 1
# Processed by: cddbd v1.5.1PL0 Copyright (c) Steve Scherf et al.
# Submitted via: OrangeCD 4.1
# Normalized: r0:DSETVAR1,TDELIM( - )
#
DISCID=fc0f8812
DTITLE=Various Artist - Gone Country 2
DYEAR=1900
DGENRE=
TTITLE0=George Strait - Check Yes Or No
TTITLE1=Joe Ely - All Just To Get You
TTITLE2=Bobbie Cryner - I Just Can't Stand To Be Unhappy
TTITLE3=The Mavericks - Here Comes The Rain
TTITLE4=Tracy Byrd - Heaven In My Woman's Eyes
TTITLE5=Frazier River Band - Everything About You
TTITLE6=Rodney Crowell - Please Remember Me
TTITLE7=George Jones and Tammy Wynette - One
TTITLE8=Reba McEntire - On My Own
TTITLE9=Mark Chesnutt - Trouble
TTITLE10=Rhett Akins - That Ain't My Truck
TTITLE11=The Mavericks - True Love Ways
TTITLE12=Trisha Yearwood - You Can Sleep While I Drive
TTITLE13=Helen Darling - I Haven't Found It Yet
TTITLE14=Reba McEntire - Starting Over Again
TTITLE15=Marty Stuart - If I Ain't Got You
TTITLE16=David Lee Murphy - Out With A Bang
TTITLE17=Vince Gill - You Better Think Twice
EXTD=
EXTT0=
EXTT1=
EXTT2=
EXTT3=
EXTT4=
EXTT5=
EXTT6=
EXTT7=
EXTT8=
EXTT9=
EXTT10=
EXTT11=
EXTT12=
EXTT13=
EXTT14=
EXTT15=
EXTT16=
EXTT17=
PLAYORDER=
